<svg xmlns="http://www.w3.org/2000/svg" viewBox="0 0 128 128" width="512" height="512" role="img" aria-label="Coffee">
  <defs>
    <linearGradient id="g1" x1="0" y1="0" x2="0" y2="1">
      <stop offset="0%" stop-color="#d6d3d1"/>
      <stop offset="100%" stop-color="#a8a29e"/>
    </linearGradient>
    <linearGradient id="g2" x1="0" y1="0" x2="0" y2="1">
      <stop offset="0%" stop-color="#7c3aed"/>
      <stop offset="100%" stop-color="#06b6d4"/>
    </linearGradient>
  </defs>
  <rect x="8" y="72" width="112" height="16" rx="8" fill="#e5e7eb"/>
  <g transform="translate(16,24)">
    <rect x="0" y="16" width="72" height="40" rx="8" fill="url(#g1)"/>
    <rect x="6" y="22" width="60" height="16" rx="4" fill="#ffffff" opacity="0.9"/>
    <rect x="0" y="48" width="72" height="8" rx="4" fill="#6b7280" opacity="0.25"/>
    <path d="M72,28 h8 a12,12 0 0 1 0,24 h-8" fill="none" stroke="#9ca3af" stroke-width="6" stroke-linecap="round"/>
    <rect x="18" y="8" width="36" height="6" rx="3" fill="#6b7280" opacity="0.35"/>
  </g>
  <g fill="url(#g2)">
    <path d="M38 18c2 0 4 2 4 4s-2 6-2 8 2 4 2 6-2 4-4 4-4-2-4-4 2-4 2-6-2-6-2-8 2-4 4-4z" opacity="0.6"/>
    <path d="M58 14c2 0 4 2 4 4s-2 6-2 8 2 4 2 6-2 4-4 4-4-2-4-4 2-4 2-6-2-6-2-8 2-4 4-4z" opacity="0.4"/>
    <path d="M78 18c2 0 4 2 4 4s-2 6-2 8 2 4 2 6-2 4-4 4-4-2-4-4 2-4 2-6-2-6-2-8 2-4 4-4z" opacity="0.5"/>
  </g>
</svg>
